<svg width="393" height="852" viewBox="0 0 393 852" fill="none" xmlns="http://www.w3.org/2000/svg">
<rect width="393" height="852" fill="url(#paint0_linear_70942_7862)"/>
<g clip-path="url(#clip0_70942_7862)">
<path d="M450.62 543.716C450.62 403.108 336.635 289.122 196.027 289.122C55.4185 289.122 -58.5671 403.108 -58.5671 543.716C-58.5671 684.324 55.4185 798.31 196.027 798.31V800.989C53.9384 800.989 -61.2467 685.804 -61.2467 543.716C-61.2467 401.628 53.9384 286.443 196.027 286.443C338.115 286.443 453.3 401.628 453.3 543.716C453.3 685.804 338.115 800.989 196.027 800.989V798.31C336.635 798.31 450.62 684.324 450.62 543.716Z" fill="url(#paint1_linear_70942_7862)"/>
<path d="M413.867 508.111C413.867 367.503 299.881 253.518 159.273 253.518C18.6652 253.518 -95.3204 367.503 -95.3204 508.111C-95.3204 648.719 18.6652 762.705 159.273 762.705V765.385C17.1851 765.385 -98 650.199 -98 508.111C-98 366.023 17.1851 250.838 159.273 250.838C301.361 250.838 416.546 366.023 416.546 508.111C416.546 650.199 301.361 765.385 159.273 765.385V762.705C299.881 762.705 413.867 648.719 413.867 508.111Z" fill="url(#paint2_linear_70942_7862)"/>
<path d="M450.62 472.507C450.62 331.899 336.635 217.913 196.027 217.913C55.4185 217.913 -58.5671 331.899 -58.5671 472.507C-58.5671 613.115 55.4185 727.1 196.027 727.1V729.78C53.9384 729.78 -61.2467 614.595 -61.2467 472.507C-61.2467 330.419 53.9384 215.233 196.027 215.233C338.115 215.233 453.3 330.419 453.3 472.507C453.3 614.595 338.115 729.78 196.027 729.78V727.1C336.635 727.1 450.62 613.115 450.62 472.507Z" fill="url(#paint3_linear_70942_7862)"/>
<path d="M487.374 436.902C487.374 296.294 373.388 182.308 232.78 182.308C92.1719 182.308 -21.8138 296.294 -21.8138 436.902C-21.8138 577.51 92.1719 691.496 232.78 691.496V694.175C90.6918 694.175 -24.4933 578.99 -24.4933 436.902C-24.4933 294.814 90.6918 179.629 232.78 179.629C374.868 179.629 490.053 294.814 490.053 436.902C490.053 578.99 374.868 694.175 232.78 694.175V691.496C373.388 691.496 487.374 577.51 487.374 436.902Z" fill="url(#paint4_linear_70942_7862)"/>
<path d="M450.62 401.297C450.62 260.689 336.635 146.703 196.027 146.703C55.4185 146.703 -58.5671 260.689 -58.5671 401.297C-58.5671 541.905 55.4185 655.891 196.027 655.891V658.57C53.9384 658.57 -61.2467 543.385 -61.2467 401.297C-61.2467 259.209 53.9384 144.024 196.027 144.024C338.115 144.024 453.3 259.209 453.3 401.297C453.3 543.385 338.115 658.57 196.027 658.57V655.891C336.635 655.891 450.62 541.905 450.62 401.297Z" fill="url(#paint5_linear_70942_7862)"/>
<path d="M413.867 365.692C413.867 225.084 299.881 111.099 159.273 111.099C18.6652 111.099 -95.3204 225.084 -95.3204 365.692C-95.3204 506.3 18.6652 620.286 159.273 620.286V622.965C17.1851 622.965 -98 507.78 -98 365.692C-98 223.604 17.1851 108.419 159.273 108.419C301.361 108.419 416.546 223.604 416.546 365.692C416.546 507.78 301.361 622.965 159.273 622.965V620.286C299.881 620.286 413.867 506.3 413.867 365.692Z" fill="url(#paint6_linear_70942_7862)"/>
<path d="M450.62 330.088C450.62 189.48 336.635 75.494 196.027 75.494C55.4185 75.494 -58.5671 189.48 -58.5671 330.088C-58.5671 470.696 55.4185 584.681 196.027 584.681V587.361C53.9384 587.361 -61.2467 472.176 -61.2467 330.088C-61.2467 188 53.9384 72.8145 196.027 72.8145C338.115 72.8145 453.3 188 453.3 330.088C453.3 472.176 338.115 587.361 196.027 587.361V584.681C336.635 584.681 450.62 470.696 450.62 330.088Z" fill="url(#paint7_linear_70942_7862)"/>
<path d="M487.374 294.483C487.374 153.875 373.388 39.889 232.78 39.889C92.1719 39.889 -21.8138 153.875 -21.8138 294.483C-21.8138 435.091 92.1719 549.076 232.78 549.076V551.756C90.6918 551.756 -24.4933 436.571 -24.4933 294.483C-24.4933 152.395 90.6918 37.2095 232.78 37.2095C374.868 37.2095 490.053 152.395 490.053 294.483C490.053 436.571 374.868 551.756 232.78 551.756V549.076C373.388 549.076 487.374 435.091 487.374 294.483Z" fill="url(#paint8_linear_70942_7862)"/>
<path d="M413.867 258.878C413.867 118.27 299.881 4.28429 159.273 4.28429C18.6652 4.28429 -95.3204 118.27 -95.3204 258.878C-95.3204 399.486 18.6652 513.472 159.273 513.472V516.151C17.1851 516.151 -98 400.966 -98 258.878C-98 116.79 17.1851 1.60474 159.273 1.60474C301.361 1.60474 416.546 116.79 416.546 258.878C416.546 400.966 301.361 516.151 159.273 516.151V513.472C299.881 513.472 413.867 399.486 413.867 258.878Z" fill="url(#paint9_linear_70942_7862)"/>
<path d="M450.62 223.273C450.62 82.6652 336.635 -31.3204 196.027 -31.3204C55.4185 -31.3204 -58.5671 82.6652 -58.5671 223.273C-58.5671 363.881 55.4185 477.867 196.027 477.867V480.546C53.9384 480.546 -61.2467 365.361 -61.2467 223.273C-61.2467 81.1851 53.9384 -34 196.027 -34C338.115 -34 453.3 81.1851 453.3 223.273C453.3 365.361 338.115 480.546 196.027 480.546V477.867C336.635 477.867 450.62 363.881 450.62 223.273Z" fill="url(#paint10_linear_70942_7862)"/>
</g>
<defs>
<linearGradient id="paint0_linear_70942_7862" x1="196.5" y1="0" x2="196.5" y2="852" gradientUnits="userSpaceOnUse">
<stop stop-color="#C5FFCD"/>
<stop offset="0.524038" stop-color="white"/>
</linearGradient>
<linearGradient id="paint1_linear_70942_7862" x1="196.027" y1="286.443" x2="196.027" y2="800.989" gradientUnits="userSpaceOnUse">
<stop stop-color="#C5FFCD"/>
<stop offset="0.524038" stop-color="white"/>
</linearGradient>
<linearGradient id="paint2_linear_70942_7862" x1="159.273" y1="250.838" x2="159.273" y2="765.385" gradientUnits="userSpaceOnUse">
<stop stop-color="#C5FFCD"/>
<stop offset="0.524038" stop-color="white"/>
</linearGradient>
<linearGradient id="paint3_linear_70942_7862" x1="196.027" y1="215.233" x2="196.027" y2="729.78" gradientUnits="userSpaceOnUse">
<stop stop-color="#C5FFCD"/>
<stop offset="0.524038" stop-color="white"/>
</linearGradient>
<linearGradient id="paint4_linear_70942_7862" x1="232.78" y1="179.629" x2="232.78" y2="694.175" gradientUnits="userSpaceOnUse">
<stop stop-color="#C5FFCD"/>
<stop offset="0.524038" stop-color="white"/>
</linearGradient>
<linearGradient id="paint5_linear_70942_7862" x1="196.027" y1="144.024" x2="196.027" y2="658.57" gradientUnits="userSpaceOnUse">
<stop stop-color="#C5FFCD"/>
<stop offset="0.524038" stop-color="white"/>
</linearGradient>
<linearGradient id="paint6_linear_70942_7862" x1="159.273" y1="108.419" x2="159.273" y2="622.965" gradientUnits="userSpaceOnUse">
<stop stop-color="#C5FFCD"/>
<stop offset="0.524038" stop-color="white"/>
</linearGradient>
<linearGradient id="paint7_linear_70942_7862" x1="196.027" y1="72.8145" x2="196.027" y2="587.361" gradientUnits="userSpaceOnUse">
<stop stop-color="#C5FFCD"/>
<stop offset="0.524038" stop-color="white"/>
</linearGradient>
<linearGradient id="paint8_linear_70942_7862" x1="232.78" y1="37.2095" x2="232.78" y2="551.756" gradientUnits="userSpaceOnUse">
<stop stop-color="#C5FFCD"/>
<stop offset="0.524038" stop-color="white"/>
</linearGradient>
<linearGradient id="paint9_linear_70942_7862" x1="159.273" y1="1.60474" x2="159.273" y2="516.151" gradientUnits="userSpaceOnUse">
<stop stop-color="#C5FFCD"/>
<stop offset="0.524038" stop-color="white"/>
</linearGradient>
<linearGradient id="paint10_linear_70942_7862" x1="196.027" y1="-34" x2="196.027" y2="480.546" gradientUnits="userSpaceOnUse">
<stop stop-color="#C5FFCD"/>
<stop offset="0.524038" stop-color="white"/>
</linearGradient>
<clipPath id="clip0_70942_7862">
<rect width="393" height="399" fill="white"/>
</clipPath>
</defs>
</svg>
